<svg width="136" height="96" viewBox="0 0 136 96" fill="none" xmlns="http://www.w3.org/2000/svg">
<g clip-path="url(#clip0)">
<path d="M80.3702 2.27478C79.9489 2.49142 79.5276 2.63585 79.1447 2.8525C78.7617 3.06915 78.3787 3.35801 78.034 3.61077C77.651 3.86352 77.383 4.2246 77.0383 4.47736C76.6936 4.76622 76.3489 5.01898 76.0042 5.30784C75.6596 5.59671 75.3532 5.92168 75.0468 6.24665C74.7404 6.57162 74.3957 6.86048 74.1276 7.18545C73.8213 7.51043 73.5149 7.79929 73.2468 8.16037C72.9787 8.52145 72.6723 8.81031 72.4042 9.17139C72.1745 9.53247 72.0213 9.96577 71.7915 10.3268C71.5617 10.6879 71.3702 11.0851 71.1404 11.4462C70.9106 11.8434 70.6042 12.1684 70.4128 12.5294C70.2213 12.9266 70.1064 13.3599 69.9149 13.721C69.7234 14.1182 69.4936 14.4793 69.3404 14.8764C69.1489 15.2736 68.9957 15.6708 68.8042 16.068C68.6128 16.4652 68.4213 16.8624 68.2681 17.2596C68.0766 17.6568 67.9617 18.0539 67.7702 18.4511C67.5787 18.8483 67.2723 19.1733 67.0808 19.5705C66.8894 19.9677 66.6213 20.3287 66.3915 20.6898C66.1617 21.0509 65.9702 21.4481 65.7404 21.8092C65.4723 22.1703 65.2042 22.4952 64.8979 22.8202C64.6298 23.1452 64.4 23.5424 64.0936 23.8673C63.7872 24.1923 63.3659 24.3728 63.0213 24.6617C62.6766 24.9506 62.4085 25.2755 62.0255 25.5283C61.6808 25.781 61.2213 25.9255 60.8383 26.1421C60.4553 26.3588 60.034 26.5032 59.6128 26.6837C59.2298 26.8643 58.8468 27.117 58.3872 27.2615C57.9659 27.4059 57.5064 27.442 57.0468 27.5864C56.6255 27.6948 56.1659 27.767 55.7064 27.8753C55.2851 27.9475 54.8255 27.9836 54.3659 28.0558C53.9447 28.1281 53.4851 28.1642 53.0255 28.2003C52.6042 28.2364 52.1447 28.3086 51.6851 28.3086C51.2255 28.3447 50.8042 28.3086 50.3064 28.3086C49.8468 28.3086 49.4255 28.4169 48.9276 28.4169C48.4681 28.4169 48.0468 28.2725 47.5872 28.2364C47.1276 28.2003 46.6681 28.3086 46.2085 28.2725C45.7489 28.2725 45.2894 28.3086 44.8298 28.3086C44.3702 28.3086 43.9106 28.2364 43.4511 28.2725C42.9915 28.3086 42.5319 28.3808 42.1106 28.4169C41.6511 28.453 41.1915 28.4891 40.7319 28.5614C40.2723 28.6336 39.8511 28.8141 39.3915 28.8863C38.9319 28.9947 38.4723 29.0308 38.0511 29.1391C37.5915 29.2474 37.1702 29.3557 36.7489 29.5002C36.3277 29.6446 35.9064 29.8612 35.5234 30.0418C35.1021 30.2223 34.7191 30.4751 34.3362 30.6917C33.9149 30.9084 33.5319 31.125 33.1872 31.3417C32.8042 31.5944 32.4213 31.8111 32.0766 32.0638C31.7319 32.3166 31.3872 32.6054 31.0425 32.8943C30.6979 33.1832 30.3149 33.3998 30.0085 33.7248C29.7021 34.0498 29.4723 34.4108 29.1659 34.7358C28.8979 35.0608 28.5915 35.3858 28.3234 35.7468C28.0553 36.1079 27.7106 36.3607 27.4425 36.7579C27.2128 37.1189 27.0213 37.5161 26.7915 37.9133C26.5617 38.2744 26.2936 38.6355 26.1021 39.0327C25.9106 39.4298 25.8723 39.8631 25.7191 40.2603C25.5277 40.6575 25.2596 41.0186 25.1064 41.4158C24.9532 41.813 24.7617 42.2102 24.6085 42.6073C24.4553 43.0045 24.4936 43.4739 24.3404 43.8711C24.2255 44.2683 24.0723 44.7016 23.9574 45.0988C23.8425 45.496 23.7277 45.9293 23.6128 46.3265C23.4979 46.7237 23.383 47.1569 23.3064 47.5902C23.2298 48.0235 23.1915 48.4568 23.1149 48.854C23.0383 49.2873 22.8085 49.6845 22.7319 50.0817C22.6553 50.515 22.6936 50.9483 22.6553 51.3816C22.5787 51.8149 22.4638 52.2121 22.4255 52.6454C22.3872 53.0787 22.2723 53.4758 22.234 53.9091C22.1957 54.3424 22.2723 54.7757 22.234 55.209C22.1957 55.6423 22.1957 56.0756 22.1574 56.5089C22.1191 56.9422 22.0425 57.3394 22.0042 57.7727C21.966 58.206 21.8894 58.6393 21.8511 59.0726C21.8128 59.5059 21.8511 59.9392 21.8128 60.3725C21.7745 60.8057 21.8128 61.239 21.8128 61.6723C21.8128 62.1056 21.7745 62.5389 21.7745 62.9722C21.7745 63.4055 21.7745 63.8388 21.7745 64.2721C21.7745 64.7054 21.6213 65.1387 21.6213 65.572C21.6213 66.0053 21.6979 66.4386 21.6979 66.8719C21.6979 67.3052 21.5447 67.7385 21.5447 68.1718C21.5447 68.6051 21.583 69.0384 21.583 69.4716C21.583 70.1216 21.583 70.1216 21.583 70.8076C21.583 71.4576 21.6213 71.4576 21.6213 72.1436C21.6213 72.8297 21.6596 72.7936 21.6596 73.4796C21.6596 74.1657 21.5447 74.1296 21.5447 74.8156C21.5447 75.4656 21.6596 75.4656 21.6596 76.1516C21.6596 76.8016 21.6596 76.8016 21.6596 77.4876C21.6596 78.1376 21.583 78.1376 21.583 78.8236C21.583 79.4736 21.7362 79.4736 21.7362 80.1596C21.7362 80.8095 21.6979 80.8095 21.6979 81.4956C21.6979 82.1455 21.6979 82.1455 21.6979 82.8316C21.6979 83.4815 21.583 83.4815 21.583 84.1676C21.583 84.8175 21.6979 84.8175 21.6979 85.5036C21.6979 86.1535 21.6213 86.1535 21.6213 86.8396C21.6213 87.4895 21.7362 87.4895 21.7362 88.1756C21.7362 88.8255 21.7362 88.8255 21.7362 89.5116C21.7362 90.1615 21.6213 90.1615 21.6213 90.8476C21.6213 91.4975 21.6979 91.4975 21.6979 92.1835C21.6979 92.8335 21.7362 92.8335 21.7362 93.5195C21.7362 94.1695 21.1234 94.4222 21.6213 94.8916C22.1191 95.361 22.3489 94.7833 23.0383 94.7833C23.7277 94.7833 23.7277 94.9277 24.417 94.9277C25.1064 94.9277 25.1064 94.7833 25.7957 94.7833C26.4851 94.7833 26.4851 94.9277 27.1745 94.9277C27.8638 94.9277 27.8638 94.8916 28.5532 94.8916C29.2425 94.8916 29.2425 94.7833 29.9319 94.7833C30.6213 94.7833 30.6213 94.8555 31.3106 94.8555C32 94.8555 32 94.8555 32.6894 94.8555C33.3787 94.8555 33.3787 94.8916 34.0681 94.8916C34.7574 94.8916 34.7574 94.8555 35.4468 94.8555C36.1362 94.8555 36.1362 94.7833 36.8255 94.7833C37.5149 94.7833 37.5149 94.9277 38.2042 94.9277C38.8936 94.9277 38.8936 94.9639 39.583 94.9277C40.2723 94.9277 40.2723 94.8194 40.9617 94.8194C41.6511 94.8194 41.6511 94.7833 42.3404 94.7833C43.0298 94.7833 43.0298 94.8916 43.7191 94.8916C44.4085 94.8916 44.4085 94.8194 45.0979 94.8194C45.7872 94.8194 45.7872 94.7833 46.4766 94.7833C47.1659 94.7833 47.1659 94.8916 47.8553 94.8916C48.5447 94.8916 48.5447 94.8916 49.234 94.8916C49.9234 94.8916 49.9234 94.8916 50.6128 94.8916C51.3021 94.8916 51.3021 94.8916 51.9915 94.8916C52.6808 94.8916 52.6808 94.7472 53.3702 94.7472C54.0596 94.7472 54.0596 94.7111 54.7489 94.7111C55.4383 94.7111 55.4383 94.7472 56.1276 94.7472C56.817 94.7472 56.817 94.7472 57.5064 94.7472C58.1957 94.7472 58.1957 94.7472 58.8851 94.7472C59.5745 94.7472 59.5745 94.7472 60.2638 94.7111C60.9532 94.7111 60.9532 94.6389 61.6425 94.6389C62.3319 94.6389 62.3319 94.7833 63.0213 94.7833C63.7106 94.7833 63.7106 94.7472 64.4 94.7472C65.0894 94.7472 65.0893 94.8194 65.7787 94.8194C66.4681 94.8194 66.4681 94.8194 67.1574 94.8194C67.8468 94.8194 67.8468 94.7111 68.5362 94.675C69.2255 94.675 69.2255 94.7472 69.9149 94.7472C70.6042 94.7472 70.6042 94.7111 71.2936 94.7111C71.983 94.7111 71.983 94.7472 72.6723 94.7472C73.3617 94.7472 73.3617 94.7111 74.0511 94.7111C74.7404 94.7111 74.7404 94.6028 75.4298 94.6028C76.1191 94.6028 76.1191 94.675 76.8085 94.675C77.4979 94.675 77.4979 94.6028 78.1872 94.6028C78.8766 94.6028 78.8766 94.6028 79.5659 94.6028C80.2553 94.6028 80.2553 94.675 80.9447 94.675C81.634 94.675 81.634 94.6389 82.3234 94.6028C83.0127 94.6028 83.0128 94.6028 83.7021 94.6028C84.3915 94.6028 84.3915 94.5667 85.0808 94.5667C85.7702 94.5667 85.7702 94.5667 86.4596 94.5667C87.1489 94.5667 87.1489 94.6028 87.8383 94.6028C88.5276 94.6028 88.5276 94.6389 89.217 94.6389C89.9064 94.6389 89.9064 94.6389 90.5957 94.6389C91.2851 94.6389 91.2851 94.7111 91.9745 94.7111C92.6638 94.7111 92.6638 94.7111 93.3532 94.7111C94.0425 94.7111 94.0425 94.7111 94.7319 94.7111C95.4213 94.7111 95.4213 94.5667 96.1106 94.5667C96.8 94.5667 96.8 94.6028 97.4893 94.6028C98.1787 94.6028 98.1787 94.6028 98.8681 94.6028C99.5574 94.6028 99.5574 94.675 100.247 94.675C100.936 94.675 100.936 94.5667 101.626 94.5667C102.315 94.5667 102.315 94.675 103.004 94.675C103.694 94.675 103.694 94.6389 104.383 94.6389C105.072 94.6389 105.072 94.675 105.762 94.675C106.451 94.675 106.451 94.5667 107.14 94.5667C107.83 94.5667 107.83 94.6389 108.519 94.6028C109.208 94.6028 109.208 94.5306 109.898 94.5306C110.587 94.5306 110.587 94.675 111.277 94.675C111.966 94.675 111.966 94.5306 112.655 94.5306C113.345 94.5306 113.345 94.6389 114.034 94.6389C114.494 94.6389 114.991 94.4945 115.374 94.2056C115.719 93.9528 115.949 93.5195 116.14 93.0862C116.332 92.6891 116.485 92.2558 116.485 91.7864C116.485 91.1364 116.447 91.1364 116.447 90.4865C116.447 89.8365 116.408 89.8365 116.408 89.1866C116.408 88.5367 116.37 88.5366 116.37 87.8867C116.37 87.2368 116.37 87.2368 116.37 86.5868C116.37 85.9369 116.485 85.9369 116.485 85.2869C116.485 84.637 116.447 84.637 116.447 83.9871C116.447 83.3371 116.37 83.3371 116.37 82.6872C116.37 82.0372 116.523 82.0372 116.523 81.3873C116.523 80.7373 116.408 80.7373 116.408 80.0874C116.408 79.4374 116.37 79.4374 116.37 78.7875C116.37 78.1376 116.408 78.1376 116.408 77.4876C116.408 76.8377 116.447 76.8377 116.447 76.1877C116.447 75.5378 116.447 75.5378 116.447 74.8878C116.447 74.2379 116.447 74.2379 116.447 73.588C116.447 72.938 116.447 72.938 116.447 72.2881C116.447 71.6381 116.37 71.6381 116.37 70.9882C116.37 70.3382 116.332 70.3382 116.332 69.6883C116.332 69.2189 116.294 68.8217 116.064 68.4606C115.834 68.0996 115.566 67.7385 115.145 67.4857C114.8 67.2691 114.302 67.1969 113.843 67.0524C113.421 66.908 113 66.7275 112.54 66.6552C112.119 66.5469 111.66 66.5108 111.2 66.4386C110.779 66.3664 110.281 66.4025 109.821 66.3303C109.362 66.258 108.94 66.0775 108.481 66.0414C108.021 65.9692 107.562 65.9692 107.102 65.9331C106.643 65.8609 106.183 65.8609 105.723 65.7886C105.264 65.7164 104.843 65.5359 104.383 65.4637C103.923 65.3915 103.464 65.4276 103.004 65.3192C102.545 65.2109 102.123 65.0304 101.702 64.9221C101.243 64.7776 100.86 64.5971 100.438 64.4527C100.017 64.2721 99.5574 64.1999 99.1362 63.9832C98.7149 63.7666 98.4468 63.4055 98.1021 63.1528C97.7574 62.9 97.2979 62.6834 96.9915 62.3584C96.6851 62.0334 96.4936 61.6362 96.2638 61.239C96.0723 60.878 95.8425 60.4808 95.7276 60.0475C95.6127 59.6503 95.6127 59.217 95.5361 58.7837C95.4979 58.3865 95.4213 57.9532 95.4213 57.5199C95.4213 57.1227 95.4979 56.6894 95.5361 56.22C95.5744 55.8228 95.6127 55.3896 95.7276 54.9563C95.8042 54.5591 95.9574 54.1619 96.0723 53.7286C96.1872 53.3314 96.3021 52.9342 96.4553 52.5009C96.6085 52.1037 96.6851 51.6704 96.8383 51.2733C96.9915 50.8761 97.2596 50.515 97.451 50.1178C97.6042 49.7206 97.6425 49.2873 97.834 48.854C98.0255 48.4568 98.2936 48.1319 98.4851 47.7347C98.6766 47.3736 98.8298 46.9403 99.0596 46.5431C99.2511 46.182 99.5191 45.821 99.7489 45.4238C99.9404 45.0627 100.132 44.6294 100.362 44.2683C100.591 43.9072 100.821 43.51 101.051 43.149C101.281 42.7879 101.587 42.4629 101.817 42.0657C102.047 41.7047 102.238 41.3075 102.468 40.9103C102.698 40.5492 102.889 40.152 103.119 39.7909C103.349 39.4298 103.579 39.0327 103.808 38.6716C104.038 38.3105 104.345 37.9494 104.536 37.5883C104.766 37.1912 105.034 36.8662 105.264 36.469C105.494 36.0718 105.685 35.6746 105.877 35.3135C106.068 34.9164 106.26 34.5192 106.451 34.1581C106.643 33.7609 106.681 33.3276 106.872 32.9304C107.064 32.5332 107.37 32.2083 107.562 31.8111C107.715 31.4139 107.868 30.9806 108.021 30.5834C108.174 30.1862 108.213 29.7168 108.366 29.3196C108.519 28.9224 108.672 28.4891 108.826 28.092C108.94 27.6587 109.17 27.2976 109.285 26.8643C109.4 26.431 109.438 25.9977 109.553 25.6005C109.668 25.1672 109.821 24.77 109.936 24.3367C110.013 23.9034 110.013 23.4701 110.089 23.0368C110.166 22.6035 110.204 22.1703 110.243 21.7731C110.281 21.3398 110.243 20.9065 110.243 20.4732C110.281 20.0399 110.434 19.6066 110.434 19.1733C110.434 18.74 110.281 18.3067 110.281 17.8734C110.243 17.4401 110.243 17.0068 110.166 16.5735C110.128 16.1402 110.089 15.7069 110.013 15.3097C109.936 14.8764 109.821 14.4793 109.706 14.046C109.591 13.6127 109.553 13.1794 109.4 12.7822C109.247 12.385 109.017 11.9878 108.864 11.5906C108.672 11.1934 108.557 10.7962 108.328 10.3991C108.136 10.0019 107.83 9.6769 107.6 9.31582C107.37 8.95474 107.179 8.55756 106.911 8.19648C106.643 7.8354 106.336 7.54653 106.03 7.18545C105.723 6.86048 105.494 6.4994 105.187 6.17443C104.881 5.84946 104.574 5.52449 104.268 5.23563C103.923 4.94676 103.54 4.69401 103.196 4.44125C102.851 4.1885 102.43 3.97185 102.047 3.7552C101.664 3.50244 101.357 3.17747 100.936 2.96083C100.553 2.74418 100.132 2.56364 99.7106 2.3831C99.2893 2.20256 98.9064 1.98591 98.4851 1.84148C98.0638 1.66094 97.6425 1.55262 97.183 1.40818C96.7617 1.26375 96.3021 1.15543 95.8808 1.04711C95.4596 0.938781 95 0.902673 94.5404 0.794349C94.0808 0.722134 93.6596 0.505486 93.2383 0.43327C92.817 0.361054 92.3191 0.324946 91.8596 0.288838C91.4 0.25273 90.9404 0.288838 90.4808 0.25273C90.0213 0.25273 89.5617 0.324946 89.1021 0.324946C88.6425 0.324946 88.183 0.216622 87.7234 0.25273C87.2638 0.288838 86.8425 0.505486 86.383 0.577702C85.9234 0.649918 85.4638 0.577702 85.0042 0.686026C84.5447 0.794349 84.1234 0.974889 83.7021 1.08321C83.2808 1.19154 82.8213 1.29986 82.4 1.44429C81.9787 1.58872 81.5957 1.80537 81.1744 1.98591C81.2127 1.9498 80.7915 2.05813 80.3702 2.27478Z" fill="#ECF5FF"/>
<path d="M76.8851 18.2706C76.8851 18.9205 77 18.9205 77 19.6066C77 20.2565 76.9234 20.2565 76.9617 20.9426C76.9617 21.5925 76.8851 21.5925 76.8851 22.2786C76.8851 22.9285 77.0383 22.9285 77.0766 23.6146C77.0766 24.2645 77 24.2645 77.0383 24.9505C77.0383 25.6005 77.0383 25.6005 77.0766 26.2865C77.0766 26.7921 77.5362 27.117 78.0723 27.117C78.7617 27.117 78.7617 27.2253 79.4511 27.1892C80.1404 27.1892 80.1404 27.117 80.8298 27.117C81.5191 27.117 81.5191 27.0448 82.2085 27.0448C82.8979 27.0448 82.8979 27.0809 83.5872 27.0809C84.2766 27.0809 84.2766 27.0448 84.966 27.0448C85.6553 27.0448 85.6553 27.0087 86.3447 27.0087C87.034 27.0087 87.034 27.0087 87.7234 27.0087C88.4128 27.0087 88.4128 26.9726 89.1021 26.9365C89.7915 26.9365 89.7915 27.0087 90.4808 26.9726C91.1702 26.9726 91.1702 27.0087 91.8979 26.9726C92.5872 26.9726 92.5872 26.7921 93.2766 26.7921C93.3149 26.7921 93.3532 26.9365 93.3532 26.9726C92.817 27.3698 92.817 27.3698 92.3191 27.767C91.783 28.1642 91.783 28.1642 91.2468 28.5613C90.7106 28.9585 90.7106 28.9585 90.1745 29.3557C89.6383 29.7529 89.7149 29.8251 89.217 30.2584C88.6808 30.6556 88.6425 30.5834 88.1064 31.0167C87.5702 31.4139 87.6468 31.5222 87.1489 31.9194C86.6128 32.3166 86.6128 32.3166 86.1149 32.7138C85.5787 33.1109 85.5404 33.0387 85.0042 33.472C84.4681 33.8692 84.5447 33.9414 84.0085 34.3386C83.4723 34.7358 83.5106 34.7719 83.0128 35.2052C82.4766 35.6024 82.4383 35.5663 81.9404 35.9996C81.4042 36.3968 81.4425 36.4329 80.9447 36.8662C80.4085 37.2634 80.4085 37.2634 79.9106 37.6605C79.3745 38.0577 79.3362 38.0216 78.8 38.4188C78.2638 38.816 78.3021 38.8521 77.8042 39.2854C77.2681 39.6826 77.3064 39.7187 76.7702 40.1159C76.234 40.5131 76.1957 40.477 75.6979 40.8741C75.3149 41.163 74.9319 41.3797 74.5106 41.5241C74.0511 41.6685 73.6298 41.7768 73.1319 41.7407C72.634 41.7046 72.1362 41.6685 71.6766 41.4519C71.2553 41.2352 70.9106 40.8741 70.6042 40.5131C70.5277 40.4047 70.4894 40.4409 70.4128 40.3325C70.1064 39.9715 69.7234 39.6465 69.417 39.3215C69.0723 38.9965 68.7276 38.6716 68.3447 38.3466C67.9617 38.0577 67.617 37.7328 67.1957 37.48C66.7745 37.2273 66.3149 37.0828 65.8553 36.8662C65.434 36.6495 65.0511 36.3246 64.5915 36.1801C64.1319 35.9996 63.634 35.9274 63.1745 35.819C62.7532 35.7107 62.2936 35.5663 61.8723 35.4941C61.4128 35.4219 60.9915 35.3857 60.5319 35.3496C60.0723 35.3135 59.6511 35.4219 59.1915 35.4219C58.7319 35.4219 58.3106 35.3857 57.8511 35.458C57.3915 35.4941 56.9702 35.6024 56.5489 35.6746C56.1277 35.7468 55.7064 35.8913 55.2851 36.0357C54.8638 36.1801 54.4042 36.2523 54.0213 36.3968C53.6 36.5773 53.217 36.7578 52.834 36.9384C52.4511 37.155 52.1064 37.4078 51.7234 37.6605C51.1489 38.0216 51.1489 38.0216 50.5745 38.3827C50 38.7438 50 38.7438 49.4255 39.1049C48.8511 39.4659 48.7745 39.3576 48.2 39.7187C47.6255 40.0798 47.7021 40.2242 47.1277 40.5853C46.5532 40.9464 46.4766 40.838 45.9021 41.1991C45.3277 41.5602 45.3277 41.5602 44.7532 41.9213C44.1787 42.2824 44.217 42.3546 43.6425 42.7157C43.0681 43.0767 43.1064 43.149 42.5319 43.51C41.9574 43.8711 41.9191 43.7989 41.3064 44.16C40.7319 44.5211 40.5404 45.2793 40.9234 45.857C41.2681 46.3626 41.2681 46.3626 41.6128 46.8681C41.9574 47.3736 42.034 47.3375 42.3787 47.843C42.7234 48.3485 42.6851 48.3485 43.0298 48.8901C43.3745 49.3956 43.2979 49.4317 43.6425 49.9372C43.9872 50.4428 43.9106 50.4789 44.2553 50.9844C44.6 51.4899 44.6 51.4899 44.9447 51.9954C45.1362 52.2843 45.4808 52.537 45.8255 52.5731C46.1702 52.6453 46.5532 52.537 46.8596 52.3565C47.434 51.9954 47.434 51.9593 48.0085 51.5982C48.583 51.2371 48.583 51.201 49.1574 50.8399C49.7319 50.4789 49.6936 50.4067 50.3064 50.0456C50.8808 49.6845 50.8808 49.6845 51.4936 49.2873C52.0681 48.9262 52.1447 48.9984 52.7191 48.6374C53.2936 48.2763 53.2936 48.2402 53.8681 47.843C54.4425 47.4458 54.4808 47.518 55.0936 47.1569C55.6681 46.7959 55.5915 46.6875 56.2042 46.2903C56.7787 45.9293 56.8553 46.0015 57.4298 45.6404C57.8128 45.3876 58.1957 45.1349 58.617 45.0627C59.0766 44.9543 59.5362 44.9182 59.9574 44.9543C60.417 45.0266 60.8383 45.2071 61.2213 45.4238C61.6042 45.6404 61.9872 45.8932 62.2553 46.2181C62.4085 46.3987 62.3319 46.4348 62.4851 46.6153C62.7915 46.9403 63.0596 47.3014 63.3659 47.6263C63.7106 47.9513 64.0553 48.2402 64.4 48.4929C64.7447 48.7818 65.2042 48.9262 65.5872 49.179C65.9702 49.4317 66.2766 49.7567 66.6979 49.9734C67.1191 50.19 67.5404 50.2983 67.9617 50.4789C68.383 50.6594 68.8042 50.8038 69.2638 50.9122C69.6851 51.0205 70.1447 51.1649 70.6042 51.2371C71.0638 51.3093 71.5234 51.4177 71.983 51.4538C72.4425 51.4899 72.9021 51.526 73.3617 51.526C73.8213 51.526 74.2808 51.4177 74.7404 51.3816C75.2 51.3455 75.6596 51.3455 76.1191 51.2732C76.5787 51.201 77 50.9844 77.4213 50.8399C77.8425 50.6955 78.3021 50.5511 78.7234 50.4067C79.1447 50.2261 79.5276 50.0095 79.9489 49.7928C80.3319 49.5762 80.8298 49.4678 81.2128 49.2151C81.5957 48.9623 81.9787 48.7096 82.3234 48.4207C82.8596 47.9874 82.8213 47.9513 83.3574 47.5541C83.8936 47.1208 83.8936 47.1208 84.3915 46.7236C84.9277 46.2903 84.9277 46.2903 85.4255 45.8932C85.9617 45.4599 85.8851 45.4238 86.4213 44.9905C86.9574 44.5572 86.9957 44.6294 87.5319 44.1961C88.0681 43.7628 88.1064 43.835 88.6425 43.4378C89.1787 43.0045 89.1404 42.9684 89.6766 42.5351C90.2128 42.1018 90.1745 42.0657 90.6723 41.6324C91.2085 41.1991 91.2468 41.2352 91.7447 40.838C92.2808 40.4047 92.2425 40.3686 92.7404 39.9353C93.2766 39.502 93.3532 39.6104 93.8894 39.1771C94.4255 38.7438 94.3489 38.6716 94.8851 38.2744C95.4213 37.8411 95.4979 37.9494 95.9957 37.5161C96.5319 37.0828 96.5319 37.0828 97.0298 36.6856C97.566 36.2523 97.4894 36.1801 98.0255 35.7468C98.5617 35.3135 98.6383 35.3857 99.1362 34.9886C99.6723 34.5553 99.634 34.5192 100.17 34.0859C100.706 33.6526 100.745 33.6887 101.243 33.2915C101.281 33.2554 101.357 33.2915 101.357 33.3276C101.166 33.9414 101.051 33.9414 100.86 34.5553C100.668 35.1691 100.668 35.1691 100.477 35.819C100.285 36.4329 100.362 36.469 100.17 37.0828C99.9787 37.6967 99.9787 37.6967 99.7872 38.3466C99.5957 38.9604 99.5957 38.9604 99.4042 39.6104C99.2128 40.2242 99.2128 40.2242 99.0213 40.8741C98.8298 41.488 98.9447 41.5241 98.7532 42.1379C98.5617 42.7518 98.4851 42.7518 98.2936 43.3656C98.1021 43.9794 98.1787 44.0155 97.9872 44.6294C97.7957 45.2432 97.6808 45.2432 97.5277 45.857C97.3362 46.4709 97.4128 46.507 97.2213 47.1208C97.0298 47.7347 97.0681 47.7708 96.8766 48.3846C96.6851 48.9984 96.6851 48.9984 96.4936 49.6484C96.3404 50.1178 96.6468 50.6955 97.1447 50.8399C97.834 51.0205 97.834 50.9483 98.5234 51.1288C99.2128 51.3093 99.2128 51.2371 99.9021 51.4177C100.591 51.5982 100.591 51.5982 101.243 51.7787C101.932 51.9593 101.894 52.0315 102.583 52.212C103.272 52.3926 103.272 52.3204 103.962 52.5009C104.651 52.6814 104.613 52.7537 105.302 52.9342C105.8 53.0786 106.26 52.7537 106.413 52.2482C106.604 51.6343 106.604 51.6343 106.796 51.0205C106.987 50.4067 106.987 50.4066 107.179 49.7928C107.37 49.179 107.485 49.2151 107.677 48.6013C107.868 47.9874 107.753 47.9513 107.945 47.3375C108.136 46.7236 108.213 46.7236 108.366 46.1098C108.557 45.496 108.557 45.496 108.749 44.8821C108.94 44.2683 108.864 44.2322 109.017 43.6184C109.209 43.0045 109.209 43.0045 109.4 42.3907C109.591 41.7768 109.63 41.7768 109.821 41.163C110.013 40.5492 109.86 40.5131 110.051 39.8992C110.243 39.2854 110.357 39.3215 110.549 38.7077C110.74 38.0938 110.587 38.0577 110.779 37.4439C110.97 36.8301 111.009 36.8301 111.2 36.2162C111.391 35.6024 111.43 35.6024 111.621 34.9886C111.813 34.3747 111.813 34.3747 111.966 33.7609C112.157 33.1471 112.196 33.1471 112.387 32.5332C112.579 31.9194 112.502 31.8833 112.694 31.2694C112.885 30.6556 112.809 30.6195 113 30.0057C113.191 29.3918 113.191 29.3918 113.383 28.778C113.574 28.1642 113.536 28.1642 113.728 27.5503C113.919 26.9365 113.919 26.9365 114.111 26.3226C114.302 25.7088 114.379 25.7449 114.57 25.095C114.762 24.4811 114.647 24.445 114.838 23.8312C115.03 23.2174 115.106 23.2535 115.298 22.6035C115.489 21.9897 115.451 21.9897 115.604 21.3398C115.796 20.7259 115.834 20.7259 116.026 20.1121C116.217 19.4982 116.14 19.4621 116.332 18.8483C116.523 18.2345 116.562 18.2345 116.753 17.6206C116.906 17.079 116.447 16.5735 115.834 16.6096C115.145 16.6096 115.145 16.6457 114.494 16.6818C113.804 16.6818 113.804 16.6818 113.115 16.7179C112.426 16.7179 112.426 16.7179 111.736 16.754C111.047 16.754 111.047 16.6096 110.357 16.6096C109.668 16.6096 109.668 16.6457 109.017 16.6457C108.328 16.6457 108.328 16.7902 107.677 16.7902C106.987 16.7902 106.987 16.754 106.298 16.7902L104.919 16.8263C104.23 16.8263 104.23 16.7902 103.54 16.7902C102.851 16.7902 102.851 16.8263 102.2 16.8263C101.511 16.8263 101.511 16.8624 100.821 16.8624C100.132 16.8624 100.132 16.8624 99.4426 16.8985C98.7532 16.8985 98.7532 16.8263 98.0638 16.8624C97.3745 16.8624 97.3745 17.0068 96.7234 17.0068C96.034 17.0068 96.034 17.0068 95.383 17.0068C94.6936 17.0068 94.6936 16.9707 94.0042 17.0068C93.3149 17.0068 93.3149 17.0429 92.6638 17.079C91.9745 17.079 91.9745 17.0068 91.2851 17.0068C90.5957 17.0068 90.5957 17.1512 89.9447 17.1512C89.2553 17.1512 89.2553 17.1873 88.6042 17.1873C87.9149 17.1873 87.9149 17.1873 87.2255 17.2234C86.5362 17.2234 86.5362 17.079 85.8468 17.1151C85.1574 17.1151 85.1574 17.1512 84.5064 17.1512C83.817 17.1512 83.817 17.1873 83.1277 17.1873C82.4383 17.1873 82.4383 17.1873 81.7489 17.2234C81.0596 17.2234 81.0596 17.2596 80.3702 17.2596C79.6808 17.2596 79.6808 17.2596 78.9915 17.2596C78.3021 17.2596 78.3021 17.3318 77.6128 17.3679C77.3064 17.404 76.8851 17.7651 76.8851 18.2706Z" fill="#C7E2FF"/>
<path d="M76.8851 18.2706C76.8851 18.9205 77 18.9205 77 19.6066C77 20.2565 76.9234 20.2565 76.9617 20.9426C76.9617 21.5925 76.8851 21.5925 76.8851 22.2786C76.8851 22.9285 77.0383 22.9285 77.0766 23.6146C77.0766 24.2645 77 24.2645 77.0383 24.9505C77.0383 25.6005 77.0383 25.6005 77.0766 26.2865C77.0766 26.7921 77.5362 27.117 78.0723 27.117C78.7617 27.117 78.7617 27.2253 79.4511 27.1892C80.1404 27.1892 80.1404 27.117 80.8298 27.117C81.5191 27.117 81.5191 27.0448 82.2085 27.0448C82.8979 27.0448 82.8979 27.0809 83.5872 27.0809C84.2766 27.0809 84.2766 27.0448 84.9659 27.0448C85.6553 27.0448 85.6553 27.0087 86.3447 27.0087C87.034 27.0087 87.034 27.0087 87.7234 27.0087C88.4128 27.0087 88.4128 26.9726 89.1021 26.9365C89.7915 26.9365 89.7915 27.0087 90.4808 26.9726C91.1702 26.9726 91.1702 27.0087 91.8979 26.9726C92.5872 26.9726 92.5872 26.7921 93.2766 26.7921C93.3149 26.7921 93.3532 26.9365 93.3532 26.9726C92.817 27.3698 92.817 27.3698 92.3191 27.767C91.783 28.1642 91.783 28.1642 91.2468 28.5613C90.7106 28.9585 90.7106 28.9585 90.1745 29.3557C89.6383 29.7529 89.7149 29.8251 89.217 30.2584C88.6808 30.6556 88.6425 30.5834 88.1064 31.0167C87.5702 31.4139 87.6468 31.5222 87.1489 31.9194C86.6128 32.3166 86.6128 32.3166 86.1149 32.7138C85.5787 33.1109 85.5404 33.0387 85.0042 33.472C84.4681 33.8692 84.5447 33.9414 84.0085 34.3386C83.4723 34.7358 83.5106 34.7719 83.0128 35.2052C82.4766 35.6024 82.4383 35.5663 81.9404 35.9996C81.4042 36.3968 81.4425 36.4329 80.9447 36.8662C80.4085 37.2634 80.4085 37.2634 79.9106 37.6605C79.3745 38.0577 79.3362 38.0216 78.8 38.4188C78.2638 38.816 78.3021 38.8521 77.8042 39.2854C77.2681 39.6826 77.3064 39.7187 76.7702 40.1159C76.234 40.5131 76.1957 40.477 75.6979 40.8742C75.3149 41.163 74.9319 41.3797 74.5106 41.5241C74.0511 41.6685 73.6298 41.7768 73.1319 41.7407C72.634 41.7046 72.1362 41.6685 71.6766 41.4519C71.2553 41.2352 70.9106 40.8742 70.6042 40.5131C70.5277 40.4047 70.4894 40.4409 70.4128 40.3325C70.1064 39.9715 69.7234 39.6465 69.417 39.3215C69.0723 38.9965 68.7276 38.6716 68.3447 38.3466C67.9617 38.0577 67.617 37.7328 67.1957 37.48C66.7745 37.2273 66.3149 37.0828 65.8553 36.8662C65.434 36.6495 65.0511 36.3246 64.5915 36.1801C64.1319 35.9996 63.634 35.9274 63.1745 35.819C62.7532 35.7107 62.2936 35.5663 61.8723 35.4941C61.4128 35.4219 60.9915 35.3857 60.5319 35.3496C60.0723 35.3135 59.6511 35.4219 59.1915 35.4219C58.7319 35.4219 58.3106 35.3857 57.8511 35.458C57.3915 35.4941 56.9702 35.6024 56.5489 35.6746C56.1277 35.7468 55.7064 35.8913 55.2851 36.0357C54.8638 36.1801 54.4042 36.2523 54.0213 36.3968C53.6 36.5773 53.217 36.7578 52.834 36.9384C52.4511 37.155 52.1064 37.4078 51.7234 37.6605C51.1489 38.0216 51.1489 38.0216 50.5745 38.3827C50 38.7438 50 38.7438 49.4255 39.1049C48.8511 39.4659 48.7745 39.3576 48.2 39.7187C47.6255 40.0798 47.7021 40.2242 47.1277 40.5853C46.5532 40.9464 46.4766 40.838 45.9021 41.1991C45.3277 41.5602 45.3277 41.5602 44.7532 41.9213C44.1787 42.2824 44.217 42.3546 43.6425 42.7157C43.0681 43.0767 43.1064 43.149 42.5319 43.51C41.9574 43.8711 41.9191 43.7989 41.3064 44.16C40.7319 44.5211 40.5404 45.2793 40.9234 45.857C41.2681 46.3626 41.2681 46.3626 41.6128 46.8681C41.9574 47.3736 42.034 47.3375 42.3787 47.843C42.7234 48.3485 42.6851 48.3485 43.0298 48.8901C43.3745 49.3956 43.2979 49.4317 43.6425 49.9372C43.9872 50.4428 43.9106 50.4789 44.2553 50.9844C44.6 51.4899 44.6 51.4899 44.9447 51.9954C45.1362 52.2843 45.4808 52.537 45.8255 52.5731C46.1702 52.6453 46.5532 52.537 46.8596 52.3565C47.434 51.9954 47.434 51.9593 48.0085 51.5982C48.583 51.2371 48.583 51.201 49.1574 50.8399C49.7319 50.4789 49.6936 50.4067 50.3064 50.0456C50.8808 49.6845 50.8808 49.6845 51.4936 49.2873C52.0681 48.9262 52.1447 48.9984 52.7191 48.6374C53.2936 48.2763 53.2936 48.2402 53.8681 47.843C54.4425 47.4458 54.4808 47.518 55.0936 47.1569C55.6681 46.7959 55.5915 46.6875 56.2042 46.2903C56.7787 45.9293 56.8553 46.0015 57.4298 45.6404C57.8128 45.3876 58.1957 45.1349 58.617 45.0627C59.0766 44.9544 59.5362 44.9182 59.9574 44.9543C60.417 45.0266 60.8383 45.2071 61.2213 45.4238C61.6043 45.6404 61.9872 45.8932 62.2553 46.2181C62.4085 46.3987 62.3319 46.4348 62.4851 46.6153C62.7915 46.9403 63.0596 47.3014 63.3659 47.6263C63.7106 47.9513 64.0553 48.2402 64.4 48.4929C64.7447 48.7818 65.2042 48.9262 65.5872 49.179C65.9702 49.4317 66.2766 49.7567 66.6979 49.9734C67.1191 50.19 67.5404 50.2983 67.9617 50.4789C68.383 50.6594 68.8042 50.8038 69.2638 50.9122C69.6851 51.0205 70.1447 51.1649 70.6042 51.2371C71.0638 51.3093 71.5234 51.4177 71.983 51.4538C72.4425 51.4899 72.9021 51.526 73.3617 51.526C73.8213 51.526 74.2808 51.4177 74.7404 51.3816C75.2 51.3455 75.6596 51.3455 76.1191 51.2732C76.5787 51.201 77 50.9844 77.4213 50.8399C77.8425 50.6955 78.3021 50.5511 78.7234 50.4067C79.1447 50.2261 79.5276 50.0095 79.9489 49.7928C80.3319 49.5762 80.8298 49.4678 81.2128 49.2151C81.5957 48.9623 81.9787 48.7096 82.3234 48.4207C82.8596 47.9874 82.8213 47.9513 83.3574 47.5541C83.8936 47.1208 83.8936 47.1208 84.3915 46.7236C84.9277 46.2903 84.9277 46.2903 85.4255 45.8932C85.9617 45.4599 85.8851 45.4238 86.4213 44.9905C86.9574 44.5572 86.9957 44.6294 87.5319 44.1961C88.0681 43.7628 88.1064 43.835 88.6425 43.4378C89.1787 43.0045 89.1404 42.9684 89.6766 42.5351C90.2128 42.1018 90.1745 42.0657 90.6723 41.6324C91.2085 41.1991 91.2468 41.2352 91.7447 40.838C92.2808 40.4047 92.2425 40.3686 92.7404 39.9353C93.2766 39.502 93.3532 39.6104 93.8894 39.1771C94.4255 38.7438 94.3489 38.6716 94.8851 38.2744C95.4213 37.8411 95.4979 37.9494 95.9957 37.5161C96.5319 37.0828 96.5319 37.0828 97.0298 36.6856C97.566 36.2523 97.4894 36.1801 98.0255 35.7468C98.5617 35.3135 98.6383 35.3857 99.1362 34.9886C99.6723 34.5553 99.634 34.5192 100.17 34.0859C100.706 33.6526 100.745 33.6887 101.243 33.2915C101.281 33.2554 101.357 33.2915 101.357 33.3276C101.166 33.9414 101.051 33.9414 100.86 34.5553C100.668 35.1691 100.668 35.1691 100.477 35.819C100.285 36.4329 100.362 36.469 100.17 37.0828C99.9787 37.6967 99.9787 37.6967 99.7872 38.3466C99.5957 38.9604 99.5957 38.9604 99.4042 39.6104C99.2128 40.2242 99.2128 40.2242 99.0213 40.8742C98.8298 41.488 98.9447 41.5241 98.7532 42.1379C98.5617 42.7518 98.4851 42.7518 98.2936 43.3656C98.1021 43.9794 98.1787 44.0155 97.9872 44.6294C97.7957 45.2432 97.6808 45.2432 97.5277 45.857C97.3362 46.4709 97.4128 46.507 97.2213 47.1208C97.0298 47.7347 97.0681 47.7708 96.8766 48.3846C96.6851 48.9984 96.6851 48.9984 96.4936 49.6484C96.3404 50.1178 96.6468 50.6955 97.1447 50.8399C97.834 51.0205 97.834 50.9483 98.5234 51.1288C99.2128 51.3093 99.2128 51.2371 99.9021 51.4177C100.591 51.5982 100.591 51.5982 101.243 51.7787C101.932 51.9593 101.894 52.0315 102.583 52.212C103.272 52.3926 103.272 52.3204 103.962 52.5009C104.651 52.6814 104.613 52.7537 105.302 52.9342C105.8 53.0786 106.26 52.7537 106.413 52.2482C106.604 51.6343 106.604 51.6343 106.796 51.0205C106.987 50.4066 106.987 50.4066 107.179 49.7928C107.37 49.179 107.485 49.2151 107.677 48.6013C107.868 47.9874 107.753 47.9513 107.945 47.3375C108.136 46.7236 108.213 46.7236 108.366 46.1098C108.557 45.496 108.557 45.496 108.749 44.8821C108.94 44.2683 108.864 44.2322 109.017 43.6184C109.209 43.0045 109.209 43.0045 109.4 42.3907C109.591 41.7769 109.63 41.7768 109.821 41.163C110.013 40.5492 109.86 40.5131 110.051 39.8992C110.243 39.2854 110.357 39.3215 110.549 38.7077C110.74 38.0938 110.587 38.0577 110.779 37.4439C110.97 36.8301 111.009 36.8301 111.2 36.2162C111.391 35.6024 111.43 35.6024 111.621 34.9886C111.813 34.3747 111.813 34.3747 111.966 33.7609C112.157 33.1471 112.196 33.1471 112.387 32.5332C112.579 31.9194 112.502 31.8833 112.694 31.2694C112.885 30.6556 112.809 30.6195 113 30.0057C113.191 29.3918 113.191 29.3918 113.383 28.778C113.574 28.1642 113.536 28.1642 113.728 27.5503C113.919 26.9365 113.919 26.9365 114.111 26.3227C114.302 25.7088 114.379 25.7449 114.57 25.095C114.762 24.4811 114.647 24.445 114.838 23.8312C115.03 23.2174 115.106 23.2535 115.298 22.6035C115.489 21.9897 115.451 21.9897 115.604 21.3398C115.796 20.7259 115.834 20.7259 116.026 20.1121C116.217 19.4982 116.14 19.4621 116.332 18.8483C116.523 18.2345 116.562 18.2345 116.753 17.6206C116.906 17.079 116.447 16.5735 115.834 16.6096C115.145 16.6096 115.145 16.6457 114.494 16.6818C113.804 16.6818 113.804 16.6818 113.115 16.7179C112.426 16.7179 112.426 16.7179 111.736 16.754C111.047 16.754 111.047 16.6096 110.357 16.6096C109.668 16.6096 109.668 16.6457 109.017 16.6457C108.328 16.6457 108.328 16.7902 107.677 16.7902C106.987 16.7902 106.987 16.754 106.298 16.7902L104.919 16.8263C104.23 16.8263 104.23 16.7902 103.54 16.7902C102.851 16.7902 102.851 16.8263 102.2 16.8263C101.511 16.8263 101.511 16.8624 100.821 16.8624C100.132 16.8624 100.132 16.8624 99.4425 16.8985C98.7532 16.8985 98.7532 16.8263 98.0638 16.8624C97.3745 16.8624 97.3745 17.0068 96.7234 17.0068C96.034 17.0068 96.034 17.0068 95.383 17.0068C94.6936 17.0068 94.6936 16.9707 94.0042 17.0068C93.3149 17.0068 93.3149 17.0429 92.6638 17.079C91.9745 17.079 91.9745 17.0068 91.2851 17.0068C90.5957 17.0068 90.5957 17.1512 89.9447 17.1512C89.2553 17.1512 89.2553 17.1873 88.6042 17.1873C87.9149 17.1873 87.9149 17.1873 87.2255 17.2234C86.5362 17.2234 86.5362 17.079 85.8468 17.1151C85.1574 17.1151 85.1574 17.1512 84.5064 17.1512C83.817 17.1512 83.817 17.1873 83.1277 17.1873C82.4383 17.1873 82.4383 17.1873 81.7489 17.2234C81.0596 17.2234 81.0596 17.2596 80.3702 17.2596C79.6808 17.2596 79.6808 17.2596 78.9915 17.2596C78.3021 17.2596 78.3021 17.3318 77.6128 17.3679C77.3064 17.404 76.8851 17.7651 76.8851 18.2706Z" stroke="#313942" stroke-width="0.701824" stroke-miterlimit="10" stroke-linecap="round"/>
<path d="M41.1149 44.2683C40.6936 44.6655 40.617 45.3515 40.9617 45.8571C41.3064 46.3626 41.3064 46.3626 41.6511 46.8681C41.9957 47.3736 41.9957 47.3736 42.3404 47.8791C42.6851 48.3846 42.5702 48.4568 42.9149 48.9623C43.2596 49.4679 43.2979 49.4317 43.6425 49.9373C43.9872 50.4428 44.1021 50.3705 44.4468 50.9122C44.7915 51.4538 44.7532 51.4538 45.0979 51.9593C45.2894 52.2482 45.5574 52.5009 45.9021 52.5731C46.2468 52.6454 46.5532 52.4648 46.8596 52.2843C47.4723 51.8871 47.5106 51.9232 48.0851 51.526C48.6979 51.1288 48.6979 51.1649 49.3106 50.7677C49.9234 50.3706 50.0766 50.5511 50.4979 49.9734C50.2298 49.6123 50 49.2512 49.6936 48.9262C49.3872 48.6013 49.0042 48.3124 48.6596 47.9874C48.3149 47.6625 47.8936 47.4097 47.5489 47.1569C47.166 46.8681 46.8213 46.5792 46.4 46.3265C45.9787 46.0737 45.634 45.7848 45.1745 45.6043C44.7532 45.3877 44.2936 45.2432 43.8723 45.0627C43.4128 44.8821 42.9532 44.846 42.4936 44.7016C42.034 44.5933 41.5745 44.3405 41.1149 44.2683Z" fill="#414C58"/>
<path d="M42.6468 44.6294L40.1191 42.2824C39.7362 41.9213 39.1234 41.9213 38.7404 42.2824L31.5021 49.1068C31.1191 49.4679 31.1191 50.0456 31.5021 50.4067L34.0298 52.7898C36.3277 54.9563 36.3277 58.4588 34.0298 60.6252C31.7319 62.7917 28.017 62.7917 25.7191 60.6252L23.1915 58.2421C22.8085 57.881 22.1957 57.881 21.8128 58.2421L14.5745 65.0665C14.1915 65.4276 14.1915 66.0053 14.5745 66.3664L17.1021 68.7495C24.1489 75.3934 35.6 75.3934 42.6468 68.7495C49.6936 62.1057 49.6936 51.2733 42.6468 44.6294Z" fill="#E7E9EA"/>
<path d="M42.6468 44.6294L40.1191 42.2824C39.7362 41.9213 39.1234 41.9213 38.7404 42.2824L31.5021 49.1068C31.1191 49.4679 31.1191 50.0456 31.5021 50.4067L34.0298 52.7898C36.3277 54.9563 36.3277 58.4588 34.0298 60.6252C31.7319 62.7917 28.017 62.7917 25.7191 60.6252L23.1915 58.2421C22.8085 57.881 22.1957 57.881 21.8128 58.2421L14.5745 65.0665C14.1915 65.4276 14.1915 66.0053 14.5745 66.3664L17.1021 68.7495C24.1489 75.3934 35.6 75.3934 42.6468 68.7495C49.6936 62.1057 49.6936 51.2733 42.6468 44.6294Z" stroke="#414C58" stroke-width="0.701824" stroke-miterlimit="10" stroke-linecap="round"/>
<path d="M114.915 94.6751H72.8255C71.7915 94.6751 70.9489 93.8807 70.9489 92.9058V53.187C70.9489 52.2121 71.7915 51.4177 72.8255 51.4177H114.915C115.949 51.4177 116.791 52.2121 116.791 53.187V92.8697C116.83 93.8807 115.987 94.6751 114.915 94.6751Z" fill="#59D095"/>
<path d="M114.915 94.6751H72.8255C71.7915 94.6751 70.9489 93.8807 70.9489 92.9058V53.187C70.9489 52.2121 71.7915 51.4177 72.8255 51.4177H114.915C115.949 51.4177 116.791 52.2121 116.791 53.187V92.8697C116.83 93.8807 115.987 94.6751 114.915 94.6751Z" stroke="#414C58" stroke-width="0.701824" stroke-miterlimit="10" stroke-linecap="round"/>
<path d="M68.2681 73.0825H50.5362C49.0809 73.0825 47.9319 71.9631 47.9319 70.6271V53.9091C47.9319 52.537 49.1192 51.4538 50.5362 51.4538H68.2681C69.7234 51.4538 70.8723 52.5731 70.8723 53.9091V70.6271C70.9106 71.9631 69.7234 73.0825 68.2681 73.0825Z" fill="#FFB569"/>
<path d="M68.2681 73.0825H50.5362C49.0809 73.0825 47.9319 71.9631 47.9319 70.6271V53.9091C47.9319 52.537 49.1192 51.4538 50.5362 51.4538H68.2681C69.7234 51.4538 70.8723 52.5731 70.8723 53.9091V70.6271C70.9106 71.9631 69.7234 73.0825 68.2681 73.0825Z" stroke="#414C58" stroke-width="0.701824" stroke-miterlimit="10" stroke-linecap="round"/>
<path d="M14.3064 94.6028H121.732" stroke="#414C58" stroke-width="0.701824" stroke-miterlimit="10" stroke-linecap="round"/>
<path d="M110.779 57.3033C110.626 57.1589 108.174 57.1589 107.6 57.1589C107.485 57.1589 107.447 57.1589 107.409 57.1589C107.37 57.1589 107.332 57.1589 107.255 57.1589C107.179 57.1589 107.14 57.1589 107.102 57.1589C107.064 57.1589 107.026 57.1589 106.911 57.1589C106.643 57.1589 106.451 57.3394 106.413 57.5922C106.413 57.8449 106.604 58.0255 106.872 58.0255C106.949 58.0255 106.987 58.0255 107.026 58.0255C107.064 58.0255 107.102 58.0255 107.217 58.0255C107.332 58.0255 107.37 58.0255 107.409 58.0255C107.447 58.0255 107.485 58.0255 107.562 58.0255C107.638 58.0255 107.677 58.0255 107.715 58.0255C107.753 58.0255 107.83 58.0255 107.906 58.0255H108.251C108.366 58.0255 108.443 58.0255 108.519 58.0255C108.557 58.0255 108.557 58.0255 108.634 58.0255C108.711 58.0255 108.749 58.0255 108.787 58.0255C108.826 58.0255 108.902 58.0255 108.979 58.0255C109.055 58.0255 109.094 58.0255 109.132 58.0255C109.17 58.0255 109.209 58.0255 109.285 58.0255C109.285 58.0255 109.285 58.0255 109.247 58.0616C109.209 58.0977 109.17 58.1338 109.094 58.1699C109.017 58.2421 108.979 58.2782 108.94 58.3143C108.902 58.3504 108.902 58.3504 108.864 58.4227C108.826 58.4588 108.787 58.4588 108.787 58.4949C108.749 58.531 108.711 58.5671 108.634 58.6393C108.557 58.7115 108.519 58.7837 108.481 58.8559C108.481 58.8921 108.443 58.8921 108.443 58.8921C107.677 59.6142 106.872 60.3364 106.106 61.0946C105.723 61.4557 104.957 62.214 103.962 63.1528C101.664 65.3193 99.3277 67.4857 97.0298 69.6522C96.9532 69.7244 96.9532 69.7605 96.9149 69.7605C96.8766 69.7966 96.8766 69.8328 96.8 69.8689C96.7234 69.9411 96.6851 69.9772 96.6468 70.0133C96.6085 70.0494 96.6085 70.0494 96.5319 70.1216C96.4553 70.1938 96.417 70.2299 96.3787 70.2661C96.3404 70.3022 96.3404 70.3022 96.3021 70.3383C96.2638 70.3744 96.2638 70.3744 96.2255 70.4105C96.1872 70.4466 96.1106 70.4827 96.0341 70.5549C95.9575 70.6271 95.9192 70.6993 95.8809 70.7355C95.8426 70.7716 95.8426 70.7716 95.8043 70.8077C95.766 70.8438 95.766 70.8438 95.7277 70.8799C95.6894 70.916 95.6128 70.9521 95.5362 71.0243C95.4979 71.0604 95.4596 71.0965 95.4213 71.1326C95.383 71.1688 95.3447 71.2049 95.2681 71.2771C95.2298 71.3132 95.1915 71.3493 95.1532 71.3854C93.5064 72.8297 82.9745 83.1205 81.4043 84.6009C81.3277 84.6731 81.2511 84.7453 81.2511 84.7453C81.2511 84.7453 81.2511 84.7453 81.2128 84.7814C81.1362 84.8176 81.0596 84.8537 80.983 84.962C80.9064 85.0342 80.8681 85.0703 80.8298 85.1064C80.2936 85.7202 79.6426 86.2258 79.0298 86.7674C78.9532 86.8396 78.9149 86.9118 78.8766 86.984C78.8766 87.0201 78.8383 87.0201 78.8383 87.0201C78.8 87.0562 78.7617 87.0562 78.7617 87.0924C78.7234 87.1285 78.6851 87.1646 78.6085 87.2368C78.5319 87.309 78.4936 87.3451 78.4553 87.3812C78.417 87.4173 78.417 87.4173 78.3787 87.4895C78.3404 87.5257 78.3021 87.5618 78.2638 87.5979C78.2638 87.5979 78.2638 87.5979 78.2255 87.634V87.5979C78.2255 87.5618 78.2255 87.4895 78.2255 87.3812C78.2255 87.2729 78.2255 87.2007 78.2255 87.1646C78.2255 87.1285 78.2255 87.0924 78.2255 87.0562C78.2255 86.984 78.2255 86.9479 78.2255 86.9118C78.2255 86.8757 78.2255 86.8035 78.2255 86.7313C78.2255 86.6229 78.2255 86.5507 78.2255 86.5146C78.2255 86.4785 78.2255 86.4424 78.2255 86.4063C78.2255 86.3341 78.2255 86.298 78.2255 86.2619C78.2255 86.2258 78.2255 86.1535 78.2255 86.0813V85.7564C78.2255 85.6841 78.2255 85.648 78.2255 85.6119C78.2255 85.5758 78.2255 85.5397 78.2255 85.4314C78.2255 85.1786 78.0341 84.9981 77.766 84.962C77.6511 84.962 77.4979 84.9981 77.4213 85.1064C77.3447 85.1786 77.2681 85.287 77.2681 85.4314C77.2681 85.5036 77.2681 85.5397 77.2681 85.5758C77.2298 86.298 77.2298 87.0562 77.2298 87.7784C77.2298 87.8506 77.2298 87.8867 77.2298 87.9228C77.2298 87.9589 77.2298 88.0312 77.2298 88.1395C77.2298 88.2117 77.2298 88.2478 77.2298 88.2839C77.2298 88.32 77.2298 88.3922 77.2298 88.4645C77.2298 88.4645 77.2298 88.4645 77.2298 88.5006C77.1915 88.6089 77.0766 88.8977 77.383 89.1505C77.5362 89.2949 79.9872 89.2949 80.5617 89.2949C80.6766 89.2949 80.7149 89.2949 80.7532 89.2949C80.7915 89.2949 80.8298 89.2949 80.9064 89.2949C80.983 89.2949 81.0213 89.2949 81.0596 89.2949C81.0979 89.2949 81.1362 89.2949 81.2511 89.2949C81.5192 89.2949 81.7106 89.1144 81.7489 88.8616C81.7489 88.6089 81.5575 88.4283 81.2894 88.4283C81.2128 88.4283 81.1745 88.4283 81.1362 88.4283C81.0979 88.4283 81.0596 88.4283 80.9447 88.4283C80.8298 88.4283 80.7915 88.4283 80.7532 88.4283C80.7149 88.4283 80.6766 88.4283 80.6 88.4283C80.5234 88.4283 80.4851 88.4283 80.4468 88.4283C80.4085 88.4283 80.3319 88.4283 80.2553 88.4283H79.9106C79.7958 88.4283 79.7192 88.4283 79.6809 88.4283C79.6426 88.4283 79.6426 88.4283 79.566 88.4283C79.4894 88.4283 79.4511 88.4283 79.4128 88.4283C79.3745 88.4283 79.2979 88.4283 79.2213 88.4283C79.1447 88.4283 79.1064 88.4283 79.0681 88.4283C79.0298 88.4283 78.9915 88.4283 78.9149 88.4283C78.9149 88.4283 78.9149 88.4283 78.9532 88.3922C78.9915 88.3561 79.0298 88.32 79.1064 88.2839C79.183 88.2117 79.2213 88.1756 79.2596 88.1395C79.2979 88.1034 79.2979 88.1034 79.3362 88.0312C79.3745 87.9951 79.4128 87.9951 79.4128 87.9589C79.4511 87.9228 79.4894 87.8867 79.566 87.8145C79.6426 87.7423 79.6809 87.6701 79.7192 87.5979C79.7192 87.5618 79.7575 87.5618 79.7575 87.5618C80.5234 86.8396 81.3277 86.1174 82.0936 85.3592C82.4766 84.9981 83.2426 84.2398 84.2383 83.301C86.5362 81.1345 88.8723 78.9681 91.1702 76.8016C91.2468 76.7294 91.2468 76.6933 91.2851 76.6933C91.3234 76.6572 91.3234 76.6211 91.4 76.5849C91.4766 76.5127 91.5149 76.4766 91.5532 76.4405C91.5915 76.4044 91.5915 76.4044 91.6681 76.3322C91.7447 76.26 91.783 76.2239 91.8213 76.1878C91.8596 76.1516 91.8596 76.1516 91.8979 76.1155C91.9362 76.0794 91.9362 76.0794 91.9745 76.0433C92.0128 76.0072 92.0894 75.9711 92.166 75.8989C92.2426 75.8267 92.2809 75.7545 92.3192 75.7184C92.3575 75.6822 92.3575 75.6822 92.3958 75.6461C92.4341 75.61 92.434 75.61 92.4723 75.5739C92.5106 75.5378 92.5872 75.5017 92.6638 75.4295C92.7021 75.3934 92.7404 75.3573 92.7787 75.3212C92.817 75.2851 92.8553 75.2489 92.9319 75.1767C92.9702 75.1406 93.0085 75.1045 93.0468 75.0684C94.6936 73.6241 105.226 63.3333 106.796 61.8529C106.872 61.7807 106.949 61.7085 106.949 61.7085C106.949 61.7085 106.949 61.7085 106.987 61.6724C107.064 61.6363 107.14 61.6002 107.217 61.4918C107.294 61.4196 107.332 61.3835 107.37 61.3474C107.906 60.7336 108.557 60.228 109.17 59.6864C109.247 59.6142 109.285 59.542 109.323 59.4698C109.323 59.4337 109.362 59.4337 109.362 59.4337C109.4 59.3976 109.438 59.3976 109.438 59.3615C109.477 59.3253 109.515 59.2892 109.592 59.217C109.668 59.1448 109.706 59.1087 109.745 59.0726C109.783 59.0365 109.783 59.0365 109.821 58.9643C109.86 58.9282 109.898 58.8921 109.936 58.8559C109.936 58.8559 109.974 58.8559 109.974 58.8198V58.8559C109.974 58.8921 109.974 58.9643 109.974 59.0726C109.974 59.1809 109.974 59.2531 109.974 59.2892C109.974 59.3253 109.974 59.3615 109.974 59.3976C109.974 59.4698 109.974 59.5059 109.974 59.542C109.974 59.5781 109.974 59.6503 109.974 59.7225C109.974 59.8309 109.974 59.9031 109.974 59.9392C109.974 59.9753 109.974 60.0114 109.974 60.0475C109.974 60.1197 109.974 60.1558 109.974 60.1919C109.974 60.228 109.974 60.3003 109.974 60.3725V60.6975C109.974 60.7697 109.974 60.8058 109.974 60.8419C109.974 60.878 109.974 60.9141 109.974 61.0224C109.974 61.2752 110.166 61.4557 110.434 61.4557C110.549 61.4557 110.702 61.4196 110.779 61.3113C110.855 61.2391 110.932 61.1307 110.932 60.9863C110.932 60.9141 110.932 60.878 110.932 60.8419C110.97 60.1197 110.97 59.3615 110.97 58.6393C110.97 58.5671 110.97 58.531 110.97 58.4949C110.97 58.4588 110.97 58.3865 110.97 58.2782C110.97 58.206 110.97 58.1699 110.97 58.1338C110.97 58.0977 110.97 58.0255 110.97 57.9532C110.97 57.9532 110.97 57.9532 110.97 57.9171C110.97 57.881 111.047 57.5922 110.779 57.3033Z" fill="white"/>
<path d="M63.6341 61.7446H60.1489C60.0341 61.7446 59.9575 61.6724 59.9575 61.5641V58.2782C59.9575 58.1699 59.8809 58.0616 59.766 58.0616H59.1532C59.0383 58.0616 58.9617 58.1338 58.9617 58.2782V61.5641C58.9617 61.6724 58.8851 61.7446 58.7702 61.7446H55.2851C55.1702 61.7446 55.0553 61.8168 55.0553 61.9612V62.539C55.0553 62.6473 55.1319 62.7195 55.2851 62.7195H58.7702C58.8851 62.7195 58.9617 62.7917 58.9617 62.9V66.1859C58.9617 66.2942 59.0383 66.3664 59.1532 66.3664H59.766C59.8809 66.3664 59.9575 66.2942 59.9575 66.1859V62.9C59.9575 62.7917 60.0341 62.7195 60.1489 62.7195H63.6341C63.749 62.7195 63.8256 62.6473 63.8256 62.539V61.9612C63.8256 61.8529 63.749 61.7446 63.6341 61.7446Z" fill="white"/>
<path d="M37.2851 73.1547C37.7447 73.1186 38.2043 73.0825 38.6638 73.1186C39.1234 73.1547 39.6213 73.0825 40.0809 73.1547C40.5404 73.2269 41 73.4075 41.4213 73.5158C41.8809 73.6602 42.3021 73.8408 42.7234 74.0213C43.1447 74.2019 43.6043 74.3463 44.0255 74.5629C44.4085 74.7796 44.7915 75.0684 45.1745 75.3212C45.5574 75.6101 45.8255 75.9711 46.1319 76.2961C46.4766 76.6211 46.8596 76.8738 47.1277 77.2349C47.3957 77.596 47.6255 77.9932 47.8553 78.3543C48.0851 78.7515 48.3915 79.1125 48.5447 79.5097C48.6213 79.6542 48.6979 79.6542 48.7745 79.5097C48.966 79.1125 49.1957 78.7153 49.4255 78.3182C49.6553 77.921 50.0383 77.6321 50.3064 77.271C50.5745 76.91 50.8808 76.585 51.1872 76.26C51.5319 75.935 51.8 75.574 52.183 75.3212C52.566 75.0323 52.9872 74.8879 53.4085 74.6351C53.7915 74.4185 54.1745 74.1296 54.634 73.9491C55.0553 73.7686 55.5149 73.6602 55.9745 73.5158C56.434 73.3714 56.8936 73.3353 57.3532 73.263C57.8128 73.1908 58.2723 73.1186 58.7319 73.0825C59.1915 73.0464 59.6511 72.9381 60.1489 72.9742C60.6085 73.0103 61.0681 73.1547 61.4894 73.2269C61.9489 73.2992 62.4085 73.3714 62.8298 73.4797C63.2511 73.6241 63.6723 73.7686 64.0936 73.9491C64.5149 74.1296 64.8596 74.4185 65.2426 74.6351C65.6255 74.8518 66.0468 75.0323 66.4298 75.2851C66.7745 75.5378 67.1192 75.8628 67.4255 76.1517C67.7319 76.4405 68.0383 76.8016 68.3064 77.1266C68.5745 77.4516 68.9575 77.7404 69.1872 78.1015C69.417 78.4626 69.5319 78.8959 69.7234 79.2931C69.9149 79.6903 70.1447 80.0513 70.2596 80.4485C70.4128 80.8457 70.4894 81.279 70.566 81.6762C70.6426 82.1095 70.6809 82.5067 70.7192 82.94C70.7575 83.3733 70.9489 83.8066 70.9489 84.2038C70.9489 84.637 70.7957 85.0342 70.7192 85.4675C70.6426 85.9008 70.566 86.298 70.4511 86.7313C70.3362 87.1285 70.1064 87.5257 69.9532 87.9229C69.7617 88.3201 69.5319 88.6811 69.3021 89.0422C69.0723 89.4033 68.9192 89.8005 68.6511 90.1616C68.383 90.4865 68.0383 90.7754 67.7319 91.1004C67.4255 91.4253 67.1574 91.7503 66.8128 92.0392C66.4681 92.328 66.1234 92.5808 65.7404 92.8336C65.3575 93.0502 65.0128 93.3391 64.5915 93.5557C64.2085 93.7363 63.7106 93.7724 63.2894 93.9168C62.8681 94.0612 62.4851 94.3501 62.0638 94.4223C61.6426 94.5306 61.183 94.6028 60.7234 94.639C60.2638 94.6751 59.8043 94.6751 59.383 94.6751C58.9234 94.6751 58.5021 94.6028 58.0426 94.5667C57.583 94.5306 57.1617 94.4584 56.7404 94.3501C56.3191 94.2418 55.8596 94.1334 55.4766 94.0251C55.0553 93.8807 54.6723 93.664 54.2894 93.4835C53.9064 93.303 53.4851 93.1224 53.1021 92.8697C52.7191 92.653 52.4511 92.328 52.1064 92.0392C51.7617 91.7864 51.417 91.5337 51.1106 91.2087C50.8043 90.9198 50.5362 90.5588 50.2681 90.2338C50 89.9088 49.6553 89.6199 49.4255 89.2589C49.1957 88.8978 49.0043 88.5006 48.8511 88.1395C48.7745 87.9951 48.5447 87.959 48.4681 88.1395C48.2766 88.5367 48.0851 88.8978 47.8553 89.2589C47.6255 89.6199 47.3957 89.981 47.166 90.306C46.8979 90.631 46.5915 90.9559 46.3234 91.2809C46.017 91.5698 45.6723 91.8586 45.366 92.1475C45.0213 92.4003 44.6766 92.6891 44.3319 92.9058C43.9489 93.1224 43.5277 93.2307 43.1064 93.4113C42.7234 93.5918 42.3021 93.7724 41.8809 93.9168C41.4596 94.0612 41.0383 94.2057 40.617 94.2779C40.1957 94.3862 39.7745 94.5667 39.3149 94.639C38.8936 94.6751 38.434 94.6751 37.9745 94.6751C37.5149 94.6751 37.0553 94.6028 36.634 94.5306C36.1745 94.4945 35.7532 94.4584 35.2936 94.3501C34.834 94.2418 34.4128 94.1695 33.9915 94.0251C33.5702 93.8807 33.1489 93.7363 32.7277 93.5196C32.3064 93.3391 32 93.0141 31.617 92.7974C31.234 92.5447 30.8511 92.3642 30.5064 92.0753C30.1617 91.7864 29.9319 91.3892 29.6255 91.1004C29.3192 90.7754 28.8979 90.5588 28.6681 90.1977C28.4 89.8727 28.1702 89.4755 27.9404 89.1144C27.7106 88.7534 27.634 88.3201 27.4426 87.9229C27.2894 87.5257 27.0213 87.1646 26.8681 86.7674C26.7532 86.3702 26.7149 85.9369 26.6766 85.5036C26.6 85.1065 26.5617 84.6732 26.5234 84.2399C26.5234 83.8066 26.5617 83.4094 26.6 82.9761C26.6383 82.5428 26.6766 82.1095 26.7532 81.7123C26.8298 81.279 26.8681 80.8457 27.0213 80.4485C27.1745 80.0513 27.366 79.6542 27.5574 79.257C27.7489 78.8598 27.9787 78.4987 28.2085 78.1376C28.4383 77.7765 28.7447 77.4516 29.0511 77.1266C29.3192 76.8016 29.5489 76.4044 29.8936 76.0795C30.2 75.7906 30.583 75.5017 30.9277 75.249C31.2723 74.9962 31.6553 74.7435 32.0383 74.5268C32.4213 74.3102 32.8809 74.1657 33.2638 73.9852C33.6851 73.8047 34.1064 73.6963 34.566 73.5519C34.9872 73.4075 35.4085 73.1908 35.8681 73.1186C36.366 73.0825 36.8255 73.1908 37.2851 73.1547Z" fill="#FF8887"/>
<path d="M37.2851 73.1547C37.7447 73.1186 38.2043 73.0825 38.6638 73.1186C39.1234 73.1547 39.6213 73.0825 40.0809 73.1547C40.5404 73.2269 41 73.4075 41.4213 73.5158C41.8809 73.6602 42.3021 73.8408 42.7234 74.0213C43.1447 74.2019 43.6043 74.3463 44.0255 74.5629C44.4085 74.7796 44.7915 75.0684 45.1745 75.3212C45.5574 75.6101 45.8255 75.9711 46.1319 76.2961C46.4766 76.6211 46.8596 76.8738 47.1277 77.2349C47.3957 77.596 47.6255 77.9932 47.8553 78.3543C48.0851 78.7515 48.3915 79.1125 48.5447 79.5097C48.6213 79.6542 48.6979 79.6542 48.7745 79.5097C48.966 79.1125 49.1957 78.7153 49.4255 78.3182C49.6553 77.921 50.0383 77.6321 50.3064 77.271C50.5745 76.91 50.8809 76.585 51.1872 76.26C51.5319 75.935 51.8 75.574 52.183 75.3212C52.566 75.0323 52.9872 74.8879 53.4085 74.6351C53.7915 74.4185 54.1745 74.1296 54.634 73.9491C55.0553 73.7686 55.5149 73.6602 55.9745 73.5158C56.434 73.3714 56.8936 73.3353 57.3532 73.263C57.8128 73.1908 58.2723 73.1186 58.7319 73.0825C59.1915 73.0464 59.6511 72.9381 60.1489 72.9742C60.6085 73.0103 61.0681 73.1547 61.4894 73.2269C61.9489 73.2992 62.4085 73.3714 62.8298 73.4797C63.2511 73.6241 63.6723 73.7686 64.0936 73.9491C64.5149 74.1296 64.8596 74.4185 65.2426 74.6351C65.6255 74.8518 66.0468 75.0323 66.4298 75.2851C66.7745 75.5378 67.1192 75.8628 67.4255 76.1517C67.7319 76.4405 68.0383 76.8016 68.3064 77.1266C68.5745 77.4516 68.9575 77.7404 69.1872 78.1015C69.417 78.4626 69.5319 78.8959 69.7234 79.2931C69.9149 79.6903 70.1447 80.0513 70.2596 80.4485C70.4128 80.8457 70.4894 81.279 70.566 81.6762C70.6426 82.1095 70.6809 82.5067 70.7192 82.94C70.7575 83.3733 70.9489 83.8066 70.9489 84.2038C70.9489 84.637 70.7957 85.0342 70.7192 85.4675C70.6426 85.9008 70.566 86.298 70.4511 86.7313C70.3362 87.1285 70.1064 87.5257 69.9532 87.9229C69.7617 88.3201 69.5319 88.6811 69.3021 89.0422C69.0723 89.4033 68.9191 89.8005 68.6511 90.1616C68.383 90.4865 68.0383 90.7754 67.7319 91.1004C67.4255 91.4253 67.1574 91.7503 66.8128 92.0392C66.4681 92.328 66.1234 92.5808 65.7404 92.8336C65.3575 93.0502 65.0128 93.3391 64.5915 93.5557C64.2085 93.7363 63.7106 93.7724 63.2894 93.9168C62.8681 94.0612 62.4851 94.3501 62.0638 94.4223C61.6426 94.5306 61.183 94.6028 60.7234 94.639C60.2638 94.6751 59.8043 94.6751 59.383 94.6751C58.9234 94.6751 58.5021 94.6028 58.0426 94.5667C57.583 94.5306 57.1617 94.4584 56.7404 94.3501C56.3191 94.2418 55.8596 94.1334 55.4766 94.0251C55.0553 93.8807 54.6723 93.664 54.2894 93.4835C53.9064 93.303 53.4851 93.1224 53.1021 92.8697C52.7191 92.653 52.4511 92.328 52.1064 92.0392C51.7617 91.7864 51.417 91.5337 51.1106 91.2087C50.8043 90.9198 50.5362 90.5588 50.2681 90.2338C50 89.9088 49.6553 89.6199 49.4255 89.2589C49.1957 88.8978 49.0043 88.5006 48.8511 88.1395C48.7745 87.9951 48.5447 87.959 48.4681 88.1395C48.2766 88.5367 48.0851 88.8978 47.8553 89.2589C47.6255 89.6199 47.3957 89.981 47.166 90.306C46.8979 90.631 46.5915 90.9559 46.3234 91.2809C46.017 91.5698 45.6723 91.8586 45.366 92.1475C45.0213 92.4003 44.6766 92.6891 44.3319 92.9058C43.9489 93.1224 43.5277 93.2307 43.1064 93.4113C42.7234 93.5918 42.3021 93.7724 41.8809 93.9168C41.4596 94.0612 41.0383 94.2057 40.617 94.2779C40.1957 94.3862 39.7745 94.5667 39.3149 94.639C38.8936 94.6751 38.434 94.6751 37.9745 94.6751C37.5149 94.6751 37.0553 94.6028 36.634 94.5306C36.1745 94.4945 35.7532 94.4584 35.2936 94.3501C34.834 94.2418 34.4128 94.1695 33.9915 94.0251C33.5702 93.8807 33.1489 93.7363 32.7277 93.5196C32.3064 93.3391 32 93.0141 31.617 92.7974C31.234 92.5447 30.8511 92.3642 30.5064 92.0753C30.1617 91.7864 29.9319 91.3892 29.6255 91.1004C29.3192 90.7754 28.8979 90.5588 28.6681 90.1977C28.4 89.8727 28.1702 89.4755 27.9404 89.1144C27.7106 88.7534 27.634 88.3201 27.4426 87.9229C27.2894 87.5257 27.0213 87.1646 26.8681 86.7674C26.7532 86.3702 26.7149 85.9369 26.6766 85.5036C26.6 85.1065 26.5617 84.6732 26.5234 84.2399C26.5234 83.8066 26.5617 83.4094 26.6 82.9761C26.6383 82.5428 26.6766 82.1095 26.7532 81.7123C26.8298 81.279 26.8681 80.8457 27.0213 80.4485C27.1745 80.0513 27.366 79.6542 27.5574 79.257C27.7489 78.8598 27.9787 78.4987 28.2085 78.1376C28.4383 77.7765 28.7447 77.4516 29.0511 77.1266C29.3192 76.8016 29.5489 76.4044 29.8936 76.0795C30.2 75.7906 30.583 75.5017 30.9277 75.249C31.2723 74.9962 31.6553 74.7435 32.0383 74.5268C32.4213 74.3102 32.8809 74.1657 33.2638 73.9852C33.6851 73.8047 34.1064 73.6963 34.566 73.5519C34.9872 73.4075 35.4085 73.1908 35.8681 73.1186C36.366 73.0825 36.8255 73.1908 37.2851 73.1547Z" stroke="#414C58" stroke-width="0.701824" stroke-miterlimit="10" stroke-linecap="round"/>
<path d="M19.5915 83.8787H31.8468" stroke="#414C58" stroke-width="0.701824" stroke-miterlimit="10" stroke-linecap="round"/>
<path d="M20.817 81.5317H32.3447" stroke="#414C58" stroke-width="0.701824" stroke-miterlimit="10" stroke-linecap="round"/>
<path d="M32.7277 83.8427H35.7149" stroke="#414C58" stroke-width="0.701824" stroke-miterlimit="10" stroke-linecap="round"/>
<path d="M70.9107 83.0122C70.8724 82.615 70.7192 82.2178 70.6426 81.8567C70.566 81.4595 70.566 81.0623 70.4511 80.6652C70.3362 80.268 70.1447 79.9069 69.9915 79.5097C69.8383 79.7986 69.7234 80.1596 69.5702 80.4846C69.417 80.7735 69.1489 81.0623 69.0341 81.3512C68.8809 81.7845 68.8426 82.2178 68.7277 82.6511C68.6128 83.0844 68.5362 83.5177 68.4596 83.951C68.383 84.3843 68.2681 84.8176 68.2298 85.2509C68.1915 85.6842 68.1532 86.1175 68.1532 86.5869C68.1532 87.0202 68.2298 87.4534 68.2681 87.9229C68.3064 88.3561 68.2681 88.8255 68.3064 89.2588C68.3447 89.6921 68.4213 90.0893 68.4596 90.5226C68.766 90.1615 69.034 89.9088 69.3021 89.5116C69.5319 89.1144 69.7234 88.7172 69.9149 88.2839C70.1064 87.8867 70.2979 87.4534 70.4511 87.0202C70.6043 86.5869 70.7192 86.1536 70.7958 85.7203C70.8724 85.287 70.8341 84.8176 70.8724 84.3843C70.9106 83.9149 70.9489 83.4816 70.9107 83.0122Z" fill="#414C58"/>
</g>
<defs>
<clipPath id="clip0">
<rect width="108" height="95" fill="white" transform="translate(14)"/>
</clipPath>
</defs>
</svg>
